<svg xmlns="http://www.w3.org/2000/svg" viewBox="0 0 400 400" width="400" height="400" role="img" aria-label="BDE KLETT FLEECE">
  <defs>
  <radialGradient id="steel" cx="50%" cy="38%" r="62%">
    <stop offset="0%" stop-color="#9C9C9C"/>
    <stop offset="60%" stop-color="#4A4A4A"/>
    <stop offset="100%" stop-color="#1F1F1F"/>
  </radialGradient>
  <linearGradient id="hub" x1="20%" y1="20%" x2="80%" y2="80%">
    <stop offset="0%" stop-color="#6A6A6A"/>
    <stop offset="100%" stop-color="#0D0D0D"/>
  </linearGradient>
  <radialGradient id="bronze" cx="50%" cy="38%" r="62%">
    <stop offset="0%" stop-color="#C9A66B"/>
    <stop offset="60%" stop-color="#9A7A3F"/>
    <stop offset="100%" stop-color="#5C4520"/>
  </radialGradient>
  <linearGradient id="plastic" x1="0%" y1="0%" x2="0%" y2="100%">
    <stop offset="0%" stop-color="#FB7140"/>
    <stop offset="100%" stop-color="#A52213"/>
  </linearGradient>
  <filter id="shadow" x="-30%" y="-30%" width="160%" height="160%">
    <feGaussianBlur in="SourceAlpha" stdDeviation="6"/>
    <feOffset dx="0" dy="8" result="off"/>
    <feComponentTransfer><feFuncA type="linear" slope="0.32"/></feComponentTransfer>
    <feMerge><feMergeNode/><feMergeNode in="SourceGraphic"/></feMerge>
  </filter>
</defs>
  <rect width="400" height="400" fill="#F5F5F5"/>
  <ellipse cx="200" cy="305" rx="120" ry="11" fill="rgba(0,0,0,0.16)"/>
    <circle cx="200" cy="195" r="110" fill="#D8C9B5" filter="url(#shadow)"/>
    <circle cx="200" cy="195" r="110" fill="none" stroke="rgba(0,0,0,0.2)"/>
    <circle cx="200" cy="195" r="20" fill="url(#hub)"/>
    <circle cx="200" cy="195" r="20" fill="none" stroke="rgba(255,255,255,0.18)"/>
    <text x="200" y="145" text-anchor="middle" font-family="Inter" font-weight="800" font-size="14" fill="#0D0D0D" letter-spacing="0.05em">BDE</text>
    <text x="200" y="265" text-anchor="middle" font-family="Inter" font-weight="700" font-size="11" fill="#0D0D0D" letter-spacing="0.18em">FLEECE 225</text><circle cx="159.3" cy="192.9" r="0.8" fill="rgba(0,0,0,0.45)"/><circle cx="154.7" cy="152.8" r="0.8" fill="rgba(0,0,0,0.45)"/><circle cx="247.4" cy="157.9" r="0.8" fill="rgba(0,0,0,0.45)"/><circle cx="175.7" cy="237.2" r="0.8" fill="rgba(0,0,0,0.45)"/><circle cx="258.1" cy="173.4" r="0.8" fill="rgba(0,0,0,0.45)"/><circle cx="140.1" cy="205.0" r="0.8" fill="rgba(0,0,0,0.45)"/><circle cx="230.5" cy="203.9" r="0.8" fill="rgba(0,0,0,0.45)"/><circle cx="205.3" cy="263.6" r="0.8" fill="rgba(0,0,0,0.45)"/><circle cx="149.5" cy="237.5" r="0.8" fill="rgba(0,0,0,0.45)"/><circle cx="238.7" cy="195.2" r="0.8" fill="rgba(0,0,0,0.45)"/><circle cx="198.8" cy="274.3" r="0.8" fill="rgba(0,0,0,0.45)"/><circle cx="183.0" cy="245.6" r="0.8" fill="rgba(0,0,0,0.45)"/><circle cx="251.2" cy="137.8" r="0.8" fill="rgba(0,0,0,0.45)"/><circle cx="204.1" cy="258.3" r="0.8" fill="rgba(0,0,0,0.45)"/><circle cx="251.1" cy="245.1" r="0.8" fill="rgba(0,0,0,0.45)"/><circle cx="237.4" cy="255.6" r="0.8" fill="rgba(0,0,0,0.45)"/><circle cx="184.5" cy="170.8" r="0.8" fill="rgba(0,0,0,0.45)"/><circle cx="259.3" cy="203.6" r="0.8" fill="rgba(0,0,0,0.45)"/><circle cx="268.5" cy="214.0" r="0.8" fill="rgba(0,0,0,0.45)"/><circle cx="187.7" cy="243.6" r="0.8" fill="rgba(0,0,0,0.45)"/><circle cx="217.7" cy="255.2" r="0.8" fill="rgba(0,0,0,0.45)"/><circle cx="174.0" cy="245.1" r="0.8" fill="rgba(0,0,0,0.45)"/><circle cx="210.6" cy="242.4" r="0.8" fill="rgba(0,0,0,0.45)"/><circle cx="230.7" cy="238.3" r="0.8" fill="rgba(0,0,0,0.45)"/><circle cx="235.2" cy="250.7" r="0.8" fill="rgba(0,0,0,0.45)"/><circle cx="128.3" cy="229.1" r="0.8" fill="rgba(0,0,0,0.45)"/><circle cx="155.5" cy="217.4" r="0.8" fill="rgba(0,0,0,0.45)"/><circle cx="188.7" cy="266.0" r="0.8" fill="rgba(0,0,0,0.45)"/><circle cx="231.4" cy="133.7" r="0.8" fill="rgba(0,0,0,0.45)"/><circle cx="220.8" cy="217.4" r="0.8" fill="rgba(0,0,0,0.45)"/><circle cx="209.7" cy="156.7" r="0.8" fill="rgba(0,0,0,0.45)"/><circle cx="240.6" cy="153.3" r="0.8" fill="rgba(0,0,0,0.45)"/><circle cx="142.1" cy="196.1" r="0.8" fill="rgba(0,0,0,0.45)"/><circle cx="157.5" cy="232.8" r="0.8" fill="rgba(0,0,0,0.45)"/><circle cx="220.5" cy="147.8" r="0.8" fill="rgba(0,0,0,0.45)"/><circle cx="227.2" cy="177.3" r="0.8" fill="rgba(0,0,0,0.45)"/><circle cx="228.2" cy="214.9" r="0.8" fill="rgba(0,0,0,0.45)"/><circle cx="243.9" cy="145.0" r="0.8" fill="rgba(0,0,0,0.45)"/><circle cx="240.6" cy="213.7" r="0.8" fill="rgba(0,0,0,0.45)"/><circle cx="237.8" cy="173.3" r="0.8" fill="rgba(0,0,0,0.45)"/><circle cx="193.7" cy="251.9" r="0.8" fill="rgba(0,0,0,0.45)"/><circle cx="191.1" cy="230.5" r="0.8" fill="rgba(0,0,0,0.45)"/><circle cx="160.9" cy="128.0" r="0.8" fill="rgba(0,0,0,0.45)"/><circle cx="133.2" cy="210.5" r="0.8" fill="rgba(0,0,0,0.45)"/><circle cx="170.2" cy="206.2" r="0.8" fill="rgba(0,0,0,0.45)"/><circle cx="186.1" cy="242.4" r="0.8" fill="rgba(0,0,0,0.45)"/><circle cx="235.8" cy="250.3" r="0.8" fill="rgba(0,0,0,0.45)"/><circle cx="148.4" cy="158.5" r="0.8" fill="rgba(0,0,0,0.45)"/><circle cx="271.5" cy="192.4" r="0.8" fill="rgba(0,0,0,0.45)"/><circle cx="192.7" cy="167.0" r="0.8" fill="rgba(0,0,0,0.45)"/><circle cx="192.4" cy="138.8" r="0.8" fill="rgba(0,0,0,0.45)"/><circle cx="218.3" cy="223.3" r="0.8" fill="rgba(0,0,0,0.45)"/><circle cx="254.7" cy="187.7" r="0.8" fill="rgba(0,0,0,0.45)"/><circle cx="252.3" cy="205.7" r="0.8" fill="rgba(0,0,0,0.45)"/><circle cx="230.2" cy="247.7" r="0.8" fill="rgba(0,0,0,0.45)"/><circle cx="141.6" cy="237.0" r="0.8" fill="rgba(0,0,0,0.45)"/><circle cx="231.1" cy="142.5" r="0.8" fill="rgba(0,0,0,0.45)"/><circle cx="167.8" cy="158.8" r="0.8" fill="rgba(0,0,0,0.45)"/><circle cx="199.1" cy="119.8" r="0.8" fill="rgba(0,0,0,0.45)"/><circle cx="243.3" cy="247.1" r="0.8" fill="rgba(0,0,0,0.45)"/><circle cx="252.7" cy="249.9" r="0.8" fill="rgba(0,0,0,0.45)"/><circle cx="138.6" cy="168.5" r="0.8" fill="rgba(0,0,0,0.45)"/><circle cx="232.9" cy="200.5" r="0.8" fill="rgba(0,0,0,0.45)"/><circle cx="266.1" cy="168.3" r="0.8" fill="rgba(0,0,0,0.45)"/><circle cx="222.6" cy="134.9" r="0.8" fill="rgba(0,0,0,0.45)"/><circle cx="239.1" cy="152.0" r="0.8" fill="rgba(0,0,0,0.45)"/><circle cx="132.2" cy="179.3" r="0.8" fill="rgba(0,0,0,0.45)"/><circle cx="247.2" cy="256.0" r="0.8" fill="rgba(0,0,0,0.45)"/><circle cx="154.1" cy="178.2" r="0.8" fill="rgba(0,0,0,0.45)"/><circle cx="148.6" cy="224.5" r="0.8" fill="rgba(0,0,0,0.45)"/><circle cx="176.6" cy="230.4" r="0.8" fill="rgba(0,0,0,0.45)"/><circle cx="215.7" cy="129.1" r="0.8" fill="rgba(0,0,0,0.45)"/><circle cx="227.3" cy="253.2" r="0.8" fill="rgba(0,0,0,0.45)"/><circle cx="164.7" cy="223.8" r="0.8" fill="rgba(0,0,0,0.45)"/><circle cx="192.2" cy="242.4" r="0.8" fill="rgba(0,0,0,0.45)"/><circle cx="194.1" cy="141.2" r="0.8" fill="rgba(0,0,0,0.45)"/><circle cx="200.2" cy="149.1" r="0.8" fill="rgba(0,0,0,0.45)"/><circle cx="122.7" cy="182.9" r="0.8" fill="rgba(0,0,0,0.45)"/><circle cx="160.3" cy="128.2" r="0.8" fill="rgba(0,0,0,0.45)"/><circle cx="210.4" cy="249.1" r="0.8" fill="rgba(0,0,0,0.45)"/><circle cx="275.1" cy="200.2" r="0.8" fill="rgba(0,0,0,0.45)"/><circle cx="154.9" cy="212.3" r="0.8" fill="rgba(0,0,0,0.45)"/><circle cx="235.5" cy="220.5" r="0.8" fill="rgba(0,0,0,0.45)"/><circle cx="162.1" cy="194.7" r="0.8" fill="rgba(0,0,0,0.45)"/><circle cx="143.8" cy="151.8" r="0.8" fill="rgba(0,0,0,0.45)"/><circle cx="245.5" cy="253.2" r="0.8" fill="rgba(0,0,0,0.45)"/><circle cx="165.8" cy="177.0" r="0.8" fill="rgba(0,0,0,0.45)"/><circle cx="164.4" cy="232.1" r="0.8" fill="rgba(0,0,0,0.45)"/><circle cx="215.8" cy="222.5" r="0.8" fill="rgba(0,0,0,0.45)"/><circle cx="235.1" cy="170.8" r="0.8" fill="rgba(0,0,0,0.45)"/><circle cx="170.8" cy="244.7" r="0.8" fill="rgba(0,0,0,0.45)"/><circle cx="263.2" cy="238.0" r="0.8" fill="rgba(0,0,0,0.45)"/>
  <rect x="60" y="318" width="280" height="3" fill="#D62E20"/>
  <text x="200" y="354" text-anchor="middle" font-family="Inter,system-ui,sans-serif" font-weight="800" font-size="20" fill="#0D0D0D" letter-spacing="0.02em">KLETT FLEECE</text>
  <text x="200" y="378" text-anchor="middle" font-family="Inter,system-ui,sans-serif" font-weight="600" font-size="11" fill="#666" letter-spacing="0.22em">BDE</text>
</svg>