<svg xmlns="http://www.w3.org/2000/svg" viewBox="0 0 400 400" width="400" height="400" role="img" aria-label="BDE STIFT Ø10">
  <defs>
  <radialGradient id="steel" cx="50%" cy="38%" r="62%">
    <stop offset="0%" stop-color="#9C9C9C"/>
    <stop offset="60%" stop-color="#4A4A4A"/>
    <stop offset="100%" stop-color="#1F1F1F"/>
  </radialGradient>
  <linearGradient id="hub" x1="20%" y1="20%" x2="80%" y2="80%">
    <stop offset="0%" stop-color="#6A6A6A"/>
    <stop offset="100%" stop-color="#0D0D0D"/>
  </linearGradient>
  <radialGradient id="bronze" cx="50%" cy="38%" r="62%">
    <stop offset="0%" stop-color="#C9A66B"/>
    <stop offset="60%" stop-color="#9A7A3F"/>
    <stop offset="100%" stop-color="#5C4520"/>
  </radialGradient>
  <linearGradient id="plastic" x1="0%" y1="0%" x2="0%" y2="100%">
    <stop offset="0%" stop-color="#FB7140"/>
    <stop offset="100%" stop-color="#A52213"/>
  </linearGradient>
  <filter id="shadow" x="-30%" y="-30%" width="160%" height="160%">
    <feGaussianBlur in="SourceAlpha" stdDeviation="6"/>
    <feOffset dx="0" dy="8" result="off"/>
    <feComponentTransfer><feFuncA type="linear" slope="0.32"/></feComponentTransfer>
    <feMerge><feMergeNode/><feMergeNode in="SourceGraphic"/></feMerge>
  </filter>
</defs>
  <rect width="400" height="400" fill="#F5F5F5"/>
  <ellipse cx="200" cy="305" rx="40" ry="10" fill="rgba(0,0,0,0.15)"/>
    <circle cx="200" cy="160" r="22" fill="#0D0D0D" filter="url(#shadow)"/>
    <rect x="197" y="178" width="6" height="120" fill="url(#steel)"/><circle cx="218.0" cy="160.0" r="1" fill="#D62E20"/><circle cx="215.6" cy="169.0" r="1" fill="#D62E20"/><circle cx="209.0" cy="175.6" r="1" fill="#D62E20"/><circle cx="200.0" cy="178.0" r="1" fill="#D62E20"/><circle cx="191.0" cy="175.6" r="1" fill="#D62E20"/><circle cx="184.4" cy="169.0" r="1" fill="#D62E20"/><circle cx="182.0" cy="160.0" r="1" fill="#D62E20"/><circle cx="184.4" cy="151.0" r="1" fill="#D62E20"/><circle cx="191.0" cy="144.4" r="1" fill="#D62E20"/><circle cx="200.0" cy="142.0" r="1" fill="#D62E20"/><circle cx="209.0" cy="144.4" r="1" fill="#D62E20"/><circle cx="215.6" cy="151.0" r="1" fill="#D62E20"/><circle cx="214.0" cy="160.0" r="1" fill="#D62E20"/><circle cx="212.1" cy="167.0" r="1" fill="#D62E20"/><circle cx="207.0" cy="172.1" r="1" fill="#D62E20"/><circle cx="200.0" cy="174.0" r="1" fill="#D62E20"/><circle cx="193.0" cy="172.1" r="1" fill="#D62E20"/><circle cx="187.9" cy="167.0" r="1" fill="#D62E20"/><circle cx="186.0" cy="160.0" r="1" fill="#D62E20"/><circle cx="187.9" cy="153.0" r="1" fill="#D62E20"/><circle cx="193.0" cy="147.9" r="1" fill="#D62E20"/><circle cx="200.0" cy="146.0" r="1" fill="#D62E20"/><circle cx="207.0" cy="147.9" r="1" fill="#D62E20"/><circle cx="212.1" cy="153.0" r="1" fill="#D62E20"/><circle cx="210.0" cy="160.0" r="1" fill="#D62E20"/><circle cx="208.7" cy="165.0" r="1" fill="#D62E20"/><circle cx="205.0" cy="168.7" r="1" fill="#D62E20"/><circle cx="200.0" cy="170.0" r="1" fill="#D62E20"/><circle cx="195.0" cy="168.7" r="1" fill="#D62E20"/><circle cx="191.3" cy="165.0" r="1" fill="#D62E20"/><circle cx="190.0" cy="160.0" r="1" fill="#D62E20"/><circle cx="191.3" cy="155.0" r="1" fill="#D62E20"/><circle cx="195.0" cy="151.3" r="1" fill="#D62E20"/><circle cx="200.0" cy="150.0" r="1" fill="#D62E20"/><circle cx="205.0" cy="151.3" r="1" fill="#D62E20"/><circle cx="208.7" cy="155.0" r="1" fill="#D62E20"/><text x="200" y="280" text-anchor="middle" font-family="Inter" font-weight="800" font-size="11" fill="#999">Ø10</text>
  <rect x="60" y="318" width="280" height="3" fill="#D62E20"/>
  <text x="200" y="354" text-anchor="middle" font-family="Inter,system-ui,sans-serif" font-weight="800" font-size="20" fill="#0D0D0D" letter-spacing="0.02em">STIFT Ø10</text>
  <text x="200" y="378" text-anchor="middle" font-family="Inter,system-ui,sans-serif" font-weight="600" font-size="11" fill="#666" letter-spacing="0.22em">BDE</text>
</svg>