<svg xmlns="http://www.w3.org/2000/svg" viewBox="0 0 400 400" width="400" height="400" role="img" aria-label="BDE TELLER 225">
  <defs>
  <radialGradient id="steel" cx="50%" cy="38%" r="62%">
    <stop offset="0%" stop-color="#9C9C9C"/>
    <stop offset="60%" stop-color="#4A4A4A"/>
    <stop offset="100%" stop-color="#1F1F1F"/>
  </radialGradient>
  <linearGradient id="hub" x1="20%" y1="20%" x2="80%" y2="80%">
    <stop offset="0%" stop-color="#6A6A6A"/>
    <stop offset="100%" stop-color="#0D0D0D"/>
  </linearGradient>
  <radialGradient id="bronze" cx="50%" cy="38%" r="62%">
    <stop offset="0%" stop-color="#C9A66B"/>
    <stop offset="60%" stop-color="#9A7A3F"/>
    <stop offset="100%" stop-color="#5C4520"/>
  </radialGradient>
  <linearGradient id="plastic" x1="0%" y1="0%" x2="0%" y2="100%">
    <stop offset="0%" stop-color="#FB7140"/>
    <stop offset="100%" stop-color="#A52213"/>
  </linearGradient>
  <filter id="shadow" x="-30%" y="-30%" width="160%" height="160%">
    <feGaussianBlur in="SourceAlpha" stdDeviation="6"/>
    <feOffset dx="0" dy="8" result="off"/>
    <feComponentTransfer><feFuncA type="linear" slope="0.32"/></feComponentTransfer>
    <feMerge><feMergeNode/><feMergeNode in="SourceGraphic"/></feMerge>
  </filter>
</defs>
  <rect width="400" height="400" fill="#F5F5F5"/>
  <ellipse cx="200" cy="310" rx="125" ry="11" fill="rgba(0,0,0,0.18)"/>
    <ellipse cx="200" cy="213" rx="115" ry="22" fill="url(#hub)" filter="url(#shadow)"/>
    <circle cx="200" cy="195" r="115" fill="url(#plastic)"/>
    <circle cx="200" cy="195" r="115" fill="none" stroke="rgba(0,0,0,0.3)"/>
    <circle cx="200" cy="195" r="40" fill="url(#hub)"/>
    <text x="200" y="200" text-anchor="middle" font-family="Inter" font-weight="800" font-size="16" fill="white" letter-spacing="0.1em">BDE</text><circle cx="221" cy="169" r="1.4" fill="rgba(0,0,0,0.18)"/><circle cx="254" cy="176" r="1.4" fill="rgba(0,0,0,0.18)"/><circle cx="193" cy="276" r="1.4" fill="rgba(0,0,0,0.18)"/><circle cx="212" cy="156" r="1.4" fill="rgba(0,0,0,0.18)"/><circle cx="259" cy="243" r="1.4" fill="rgba(0,0,0,0.18)"/><circle cx="207" cy="161" r="1.4" fill="rgba(0,0,0,0.18)"/><circle cx="237" cy="134" r="1.4" fill="rgba(0,0,0,0.18)"/><circle cx="230" cy="201" r="1.4" fill="rgba(0,0,0,0.18)"/><circle cx="233" cy="265" r="1.4" fill="rgba(0,0,0,0.18)"/><circle cx="163" cy="215" r="1.4" fill="rgba(0,0,0,0.18)"/><circle cx="289" cy="206" r="1.4" fill="rgba(0,0,0,0.18)"/><circle cx="200" cy="253" r="1.4" fill="rgba(0,0,0,0.18)"/><circle cx="224" cy="280" r="1.4" fill="rgba(0,0,0,0.18)"/><circle cx="273" cy="237" r="1.4" fill="rgba(0,0,0,0.18)"/><circle cx="158" cy="226" r="1.4" fill="rgba(0,0,0,0.18)"/><circle cx="295" cy="207" r="1.4" fill="rgba(0,0,0,0.18)"/><circle cx="151" cy="193" r="1.4" fill="rgba(0,0,0,0.18)"/><circle cx="148" cy="258" r="1.4" fill="rgba(0,0,0,0.18)"/><circle cx="272" cy="150" r="1.4" fill="rgba(0,0,0,0.18)"/><circle cx="205" cy="218" r="1.4" fill="rgba(0,0,0,0.18)"/><circle cx="271" cy="146" r="1.4" fill="rgba(0,0,0,0.18)"/><circle cx="139" cy="259" r="1.4" fill="rgba(0,0,0,0.18)"/><circle cx="199" cy="240" r="1.4" fill="rgba(0,0,0,0.18)"/><circle cx="288" cy="149" r="1.4" fill="rgba(0,0,0,0.18)"/><circle cx="266" cy="162" r="1.4" fill="rgba(0,0,0,0.18)"/><circle cx="261" cy="190" r="1.4" fill="rgba(0,0,0,0.18)"/><circle cx="270" cy="260" r="1.4" fill="rgba(0,0,0,0.18)"/><circle cx="272" cy="154" r="1.4" fill="rgba(0,0,0,0.18)"/><circle cx="175" cy="151" r="1.4" fill="rgba(0,0,0,0.18)"/><circle cx="189" cy="179" r="1.4" fill="rgba(0,0,0,0.18)"/><circle cx="142" cy="213" r="1.4" fill="rgba(0,0,0,0.18)"/><circle cx="293" cy="210" r="1.4" fill="rgba(0,0,0,0.18)"/><circle cx="180" cy="269" r="1.4" fill="rgba(0,0,0,0.18)"/><circle cx="161" cy="142" r="1.4" fill="rgba(0,0,0,0.18)"/><circle cx="219" cy="176" r="1.4" fill="rgba(0,0,0,0.18)"/><circle cx="249" cy="203" r="1.4" fill="rgba(0,0,0,0.18)"/><circle cx="138" cy="233" r="1.4" fill="rgba(0,0,0,0.18)"/><circle cx="239" cy="187" r="1.4" fill="rgba(0,0,0,0.18)"/><circle cx="168" cy="217" r="1.4" fill="rgba(0,0,0,0.18)"/><circle cx="218" cy="268" r="1.4" fill="rgba(0,0,0,0.18)"/><circle cx="186" cy="223" r="1.4" fill="rgba(0,0,0,0.18)"/><circle cx="243" cy="143" r="1.4" fill="rgba(0,0,0,0.18)"/><circle cx="145" cy="246" r="1.4" fill="rgba(0,0,0,0.18)"/><circle cx="255" cy="139" r="1.4" fill="rgba(0,0,0,0.18)"/><circle cx="137" cy="162" r="1.4" fill="rgba(0,0,0,0.18)"/><circle cx="191" cy="247" r="1.4" fill="rgba(0,0,0,0.18)"/><circle cx="149" cy="177" r="1.4" fill="rgba(0,0,0,0.18)"/><circle cx="217" cy="133" r="1.4" fill="rgba(0,0,0,0.18)"/><circle cx="229" cy="235" r="1.4" fill="rgba(0,0,0,0.18)"/><circle cx="187" cy="186" r="1.4" fill="rgba(0,0,0,0.18)"/><circle cx="173" cy="204" r="1.4" fill="rgba(0,0,0,0.18)"/><circle cx="262" cy="188" r="1.4" fill="rgba(0,0,0,0.18)"/><circle cx="197" cy="171" r="1.4" fill="rgba(0,0,0,0.18)"/><circle cx="198" cy="276" r="1.4" fill="rgba(0,0,0,0.18)"/><circle cx="251" cy="158" r="1.4" fill="rgba(0,0,0,0.18)"/><circle cx="158" cy="244" r="1.4" fill="rgba(0,0,0,0.18)"/><circle cx="276" cy="138" r="1.4" fill="rgba(0,0,0,0.18)"/><circle cx="178" cy="240" r="1.4" fill="rgba(0,0,0,0.18)"/><circle cx="286" cy="205" r="1.4" fill="rgba(0,0,0,0.18)"/><circle cx="185" cy="255" r="1.4" fill="rgba(0,0,0,0.18)"/><circle cx="181" cy="268" r="1.4" fill="rgba(0,0,0,0.18)"/><circle cx="241" cy="264" r="1.4" fill="rgba(0,0,0,0.18)"/>
  <rect x="60" y="318" width="280" height="3" fill="#D62E20"/>
  <text x="200" y="354" text-anchor="middle" font-family="Inter,system-ui,sans-serif" font-weight="800" font-size="20" fill="#0D0D0D" letter-spacing="0.02em">TELLER 225</text>
  <text x="200" y="378" text-anchor="middle" font-family="Inter,system-ui,sans-serif" font-weight="600" font-size="11" fill="#666" letter-spacing="0.22em">BDE</text>
</svg>