<svg xmlns="http://www.w3.org/2000/svg" viewBox="0 0 400 400" width="400" height="400" role="img" aria-label="BDE KLETT SELECT">
  <defs>
  <radialGradient id="steel" cx="50%" cy="38%" r="62%">
    <stop offset="0%" stop-color="#9C9C9C"/>
    <stop offset="60%" stop-color="#4A4A4A"/>
    <stop offset="100%" stop-color="#1F1F1F"/>
  </radialGradient>
  <linearGradient id="hub" x1="20%" y1="20%" x2="80%" y2="80%">
    <stop offset="0%" stop-color="#6A6A6A"/>
    <stop offset="100%" stop-color="#0D0D0D"/>
  </linearGradient>
  <radialGradient id="bronze" cx="50%" cy="38%" r="62%">
    <stop offset="0%" stop-color="#C9A66B"/>
    <stop offset="60%" stop-color="#9A7A3F"/>
    <stop offset="100%" stop-color="#5C4520"/>
  </radialGradient>
  <linearGradient id="plastic" x1="0%" y1="0%" x2="0%" y2="100%">
    <stop offset="0%" stop-color="#FB7140"/>
    <stop offset="100%" stop-color="#A52213"/>
  </linearGradient>
  <filter id="shadow" x="-30%" y="-30%" width="160%" height="160%">
    <feGaussianBlur in="SourceAlpha" stdDeviation="6"/>
    <feOffset dx="0" dy="8" result="off"/>
    <feComponentTransfer><feFuncA type="linear" slope="0.32"/></feComponentTransfer>
    <feMerge><feMergeNode/><feMergeNode in="SourceGraphic"/></feMerge>
  </filter>
</defs>
  <rect width="400" height="400" fill="#F5F5F5"/>
  <ellipse cx="200" cy="305" rx="120" ry="11" fill="rgba(0,0,0,0.16)"/>
    <circle cx="200" cy="195" r="110" fill="#E6A872" filter="url(#shadow)"/>
    <circle cx="200" cy="195" r="110" fill="none" stroke="rgba(0,0,0,0.2)"/>
    <circle cx="200" cy="195" r="20" fill="url(#hub)"/>
    <circle cx="200" cy="195" r="20" fill="none" stroke="rgba(255,255,255,0.18)"/>
    <text x="200" y="145" text-anchor="middle" font-family="Inter" font-weight="800" font-size="14" fill="#0D0D0D" letter-spacing="0.05em">BDE</text>
    <text x="200" y="265" text-anchor="middle" font-family="Inter" font-weight="700" font-size="11" fill="#0D0D0D" letter-spacing="0.18em">SELECT 225</text><circle cx="150.5" cy="209.5" r="0.8" fill="rgba(0,0,0,0.45)"/><circle cx="225.1" cy="268.6" r="0.8" fill="rgba(0,0,0,0.45)"/><circle cx="178.3" cy="260.6" r="0.8" fill="rgba(0,0,0,0.45)"/><circle cx="214.8" cy="132.1" r="0.8" fill="rgba(0,0,0,0.45)"/><circle cx="232.4" cy="257.9" r="0.8" fill="rgba(0,0,0,0.45)"/><circle cx="193.8" cy="146.6" r="0.8" fill="rgba(0,0,0,0.45)"/><circle cx="260.7" cy="158.3" r="0.8" fill="rgba(0,0,0,0.45)"/><circle cx="149.0" cy="231.0" r="0.8" fill="rgba(0,0,0,0.45)"/><circle cx="165.6" cy="257.9" r="0.8" fill="rgba(0,0,0,0.45)"/><circle cx="240.5" cy="201.3" r="0.8" fill="rgba(0,0,0,0.45)"/><circle cx="272.2" cy="225.0" r="0.8" fill="rgba(0,0,0,0.45)"/><circle cx="149.8" cy="237.8" r="0.8" fill="rgba(0,0,0,0.45)"/><circle cx="169.3" cy="195.4" r="0.8" fill="rgba(0,0,0,0.45)"/><circle cx="244.5" cy="168.2" r="0.8" fill="rgba(0,0,0,0.45)"/><circle cx="186.1" cy="151.5" r="0.8" fill="rgba(0,0,0,0.45)"/><circle cx="174.2" cy="169.1" r="0.8" fill="rgba(0,0,0,0.45)"/><circle cx="141.7" cy="231.3" r="0.8" fill="rgba(0,0,0,0.45)"/><circle cx="149.5" cy="236.3" r="0.8" fill="rgba(0,0,0,0.45)"/><circle cx="199.5" cy="247.0" r="0.8" fill="rgba(0,0,0,0.45)"/><circle cx="163.2" cy="210.8" r="0.8" fill="rgba(0,0,0,0.45)"/><circle cx="223.2" cy="255.2" r="0.8" fill="rgba(0,0,0,0.45)"/><circle cx="156.3" cy="173.2" r="0.8" fill="rgba(0,0,0,0.45)"/><circle cx="255.6" cy="138.6" r="0.8" fill="rgba(0,0,0,0.45)"/><circle cx="243.2" cy="227.5" r="0.8" fill="rgba(0,0,0,0.45)"/><circle cx="240.4" cy="212.5" r="0.8" fill="rgba(0,0,0,0.45)"/><circle cx="133.0" cy="233.2" r="0.8" fill="rgba(0,0,0,0.45)"/><circle cx="244.9" cy="191.1" r="0.8" fill="rgba(0,0,0,0.45)"/><circle cx="234.0" cy="125.8" r="0.8" fill="rgba(0,0,0,0.45)"/><circle cx="243.6" cy="146.0" r="0.8" fill="rgba(0,0,0,0.45)"/><circle cx="181.5" cy="155.1" r="0.8" fill="rgba(0,0,0,0.45)"/><circle cx="259.9" cy="144.7" r="0.8" fill="rgba(0,0,0,0.45)"/><circle cx="225.8" cy="139.1" r="0.8" fill="rgba(0,0,0,0.45)"/><circle cx="146.5" cy="181.6" r="0.8" fill="rgba(0,0,0,0.45)"/><circle cx="181.4" cy="157.0" r="0.8" fill="rgba(0,0,0,0.45)"/><circle cx="176.5" cy="220.3" r="0.8" fill="rgba(0,0,0,0.45)"/><circle cx="128.2" cy="164.3" r="0.8" fill="rgba(0,0,0,0.45)"/><circle cx="262.9" cy="235.7" r="0.8" fill="rgba(0,0,0,0.45)"/><circle cx="256.9" cy="244.7" r="0.8" fill="rgba(0,0,0,0.45)"/><circle cx="141.7" cy="141.6" r="0.8" fill="rgba(0,0,0,0.45)"/><circle cx="164.2" cy="189.4" r="0.8" fill="rgba(0,0,0,0.45)"/><circle cx="144.9" cy="176.0" r="0.8" fill="rgba(0,0,0,0.45)"/><circle cx="171.3" cy="211.9" r="0.8" fill="rgba(0,0,0,0.45)"/><circle cx="183.2" cy="140.6" r="0.8" fill="rgba(0,0,0,0.45)"/><circle cx="179.4" cy="173.3" r="0.8" fill="rgba(0,0,0,0.45)"/><circle cx="241.0" cy="259.3" r="0.8" fill="rgba(0,0,0,0.45)"/><circle cx="237.3" cy="261.7" r="0.8" fill="rgba(0,0,0,0.45)"/><circle cx="235.9" cy="196.9" r="0.8" fill="rgba(0,0,0,0.45)"/><circle cx="273.6" cy="196.5" r="0.8" fill="rgba(0,0,0,0.45)"/><circle cx="164.4" cy="158.1" r="0.8" fill="rgba(0,0,0,0.45)"/><circle cx="216.2" cy="252.6" r="0.8" fill="rgba(0,0,0,0.45)"/><circle cx="187.0" cy="150.8" r="0.8" fill="rgba(0,0,0,0.45)"/><circle cx="219.5" cy="216.3" r="0.8" fill="rgba(0,0,0,0.45)"/><circle cx="250.0" cy="243.3" r="0.8" fill="rgba(0,0,0,0.45)"/><circle cx="137.4" cy="192.8" r="0.8" fill="rgba(0,0,0,0.45)"/><circle cx="154.7" cy="249.8" r="0.8" fill="rgba(0,0,0,0.45)"/><circle cx="176.4" cy="173.5" r="0.8" fill="rgba(0,0,0,0.45)"/><circle cx="198.1" cy="131.5" r="0.8" fill="rgba(0,0,0,0.45)"/><circle cx="128.3" cy="182.8" r="0.8" fill="rgba(0,0,0,0.45)"/><circle cx="212.0" cy="242.3" r="0.8" fill="rgba(0,0,0,0.45)"/><circle cx="254.3" cy="189.6" r="0.8" fill="rgba(0,0,0,0.45)"/><circle cx="246.4" cy="160.1" r="0.8" fill="rgba(0,0,0,0.45)"/><circle cx="164.6" cy="185.6" r="0.8" fill="rgba(0,0,0,0.45)"/><circle cx="267.6" cy="203.6" r="0.8" fill="rgba(0,0,0,0.45)"/><circle cx="259.4" cy="220.8" r="0.8" fill="rgba(0,0,0,0.45)"/><circle cx="141.1" cy="200.0" r="0.8" fill="rgba(0,0,0,0.45)"/><circle cx="207.5" cy="118.9" r="0.8" fill="rgba(0,0,0,0.45)"/><circle cx="164.6" cy="186.5" r="0.8" fill="rgba(0,0,0,0.45)"/><circle cx="192.0" cy="164.5" r="0.8" fill="rgba(0,0,0,0.45)"/><circle cx="225.3" cy="228.5" r="0.8" fill="rgba(0,0,0,0.45)"/><circle cx="259.7" cy="239.3" r="0.8" fill="rgba(0,0,0,0.45)"/><circle cx="162.5" cy="216.4" r="0.8" fill="rgba(0,0,0,0.45)"/><circle cx="200.5" cy="166.8" r="0.8" fill="rgba(0,0,0,0.45)"/><circle cx="250.3" cy="249.8" r="0.8" fill="rgba(0,0,0,0.45)"/><circle cx="207.7" cy="270.7" r="0.8" fill="rgba(0,0,0,0.45)"/><circle cx="152.9" cy="167.2" r="0.8" fill="rgba(0,0,0,0.45)"/><circle cx="179.1" cy="132.1" r="0.8" fill="rgba(0,0,0,0.45)"/><circle cx="176.9" cy="231.7" r="0.8" fill="rgba(0,0,0,0.45)"/><circle cx="245.3" cy="235.9" r="0.8" fill="rgba(0,0,0,0.45)"/><circle cx="273.4" cy="225.5" r="0.8" fill="rgba(0,0,0,0.45)"/><circle cx="259.2" cy="208.4" r="0.8" fill="rgba(0,0,0,0.45)"/><circle cx="206.7" cy="163.3" r="0.8" fill="rgba(0,0,0,0.45)"/><circle cx="126.0" cy="175.1" r="0.8" fill="rgba(0,0,0,0.45)"/><circle cx="259.2" cy="193.4" r="0.8" fill="rgba(0,0,0,0.45)"/><circle cx="142.5" cy="164.5" r="0.8" fill="rgba(0,0,0,0.45)"/><circle cx="239.9" cy="250.6" r="0.8" fill="rgba(0,0,0,0.45)"/><circle cx="174.1" cy="238.3" r="0.8" fill="rgba(0,0,0,0.45)"/><circle cx="158.6" cy="187.3" r="0.8" fill="rgba(0,0,0,0.45)"/><circle cx="137.5" cy="151.0" r="0.8" fill="rgba(0,0,0,0.45)"/><circle cx="178.2" cy="245.3" r="0.8" fill="rgba(0,0,0,0.45)"/><circle cx="193.7" cy="117.0" r="0.8" fill="rgba(0,0,0,0.45)"/><circle cx="254.3" cy="231.7" r="0.8" fill="rgba(0,0,0,0.45)"/><circle cx="221.1" cy="259.5" r="0.8" fill="rgba(0,0,0,0.45)"/><circle cx="207.2" cy="250.6" r="0.8" fill="rgba(0,0,0,0.45)"/><circle cx="144.0" cy="169.6" r="0.8" fill="rgba(0,0,0,0.45)"/><circle cx="205.4" cy="131.5" r="0.8" fill="rgba(0,0,0,0.45)"/><circle cx="153.7" cy="174.7" r="0.8" fill="rgba(0,0,0,0.45)"/><circle cx="230.4" cy="155.7" r="0.8" fill="rgba(0,0,0,0.45)"/><circle cx="205.7" cy="151.6" r="0.8" fill="rgba(0,0,0,0.45)"/><circle cx="133.1" cy="216.1" r="0.8" fill="rgba(0,0,0,0.45)"/>
  <rect x="60" y="318" width="280" height="3" fill="#D62E20"/>
  <text x="200" y="354" text-anchor="middle" font-family="Inter,system-ui,sans-serif" font-weight="800" font-size="20" fill="#0D0D0D" letter-spacing="0.02em">KLETT SELECT</text>
  <text x="200" y="378" text-anchor="middle" font-family="Inter,system-ui,sans-serif" font-weight="600" font-size="11" fill="#666" letter-spacing="0.22em">BDE</text>
</svg>