<svg xmlns="http://www.w3.org/2000/svg" viewBox="0 0 400 400" width="400" height="400" role="img" aria-label="BDE KLETT GITTER">
  <defs>
  <radialGradient id="steel" cx="50%" cy="38%" r="62%">
    <stop offset="0%" stop-color="#9C9C9C"/>
    <stop offset="60%" stop-color="#4A4A4A"/>
    <stop offset="100%" stop-color="#1F1F1F"/>
  </radialGradient>
  <linearGradient id="hub" x1="20%" y1="20%" x2="80%" y2="80%">
    <stop offset="0%" stop-color="#6A6A6A"/>
    <stop offset="100%" stop-color="#0D0D0D"/>
  </linearGradient>
  <radialGradient id="bronze" cx="50%" cy="38%" r="62%">
    <stop offset="0%" stop-color="#C9A66B"/>
    <stop offset="60%" stop-color="#9A7A3F"/>
    <stop offset="100%" stop-color="#5C4520"/>
  </radialGradient>
  <linearGradient id="plastic" x1="0%" y1="0%" x2="0%" y2="100%">
    <stop offset="0%" stop-color="#FB7140"/>
    <stop offset="100%" stop-color="#A52213"/>
  </linearGradient>
  <filter id="shadow" x="-30%" y="-30%" width="160%" height="160%">
    <feGaussianBlur in="SourceAlpha" stdDeviation="6"/>
    <feOffset dx="0" dy="8" result="off"/>
    <feComponentTransfer><feFuncA type="linear" slope="0.32"/></feComponentTransfer>
    <feMerge><feMergeNode/><feMergeNode in="SourceGraphic"/></feMerge>
  </filter>
</defs>
  <rect width="400" height="400" fill="#F5F5F5"/>
  <ellipse cx="200" cy="305" rx="120" ry="11" fill="rgba(0,0,0,0.16)"/>
    <circle cx="200" cy="195" r="110" fill="#B5A185" filter="url(#shadow)"/>
    <circle cx="200" cy="195" r="110" fill="none" stroke="rgba(0,0,0,0.2)"/>
    <circle cx="200" cy="195" r="20" fill="url(#hub)"/>
    <circle cx="200" cy="195" r="20" fill="none" stroke="rgba(255,255,255,0.18)"/>
    <text x="200" y="145" text-anchor="middle" font-family="Inter" font-weight="800" font-size="14" fill="#0D0D0D" letter-spacing="0.05em">BDE</text>
    <text x="200" y="265" text-anchor="middle" font-family="Inter" font-weight="700" font-size="11" fill="#0D0D0D" letter-spacing="0.18em">GITTER 225</text><circle cx="170.5" cy="147.5" r="0.8" fill="rgba(0,0,0,0.45)"/><circle cx="200.7" cy="261.1" r="0.8" fill="rgba(0,0,0,0.45)"/><circle cx="232.4" cy="174.3" r="0.8" fill="rgba(0,0,0,0.45)"/><circle cx="270.6" cy="162.2" r="0.8" fill="rgba(0,0,0,0.45)"/><circle cx="152.8" cy="134.9" r="0.8" fill="rgba(0,0,0,0.45)"/><circle cx="179.7" cy="173.6" r="0.8" fill="rgba(0,0,0,0.45)"/><circle cx="150.0" cy="203.1" r="0.8" fill="rgba(0,0,0,0.45)"/><circle cx="193.9" cy="263.4" r="0.8" fill="rgba(0,0,0,0.45)"/><circle cx="187.4" cy="269.8" r="0.8" fill="rgba(0,0,0,0.45)"/><circle cx="168.1" cy="154.3" r="0.8" fill="rgba(0,0,0,0.45)"/><circle cx="256.7" cy="245.0" r="0.8" fill="rgba(0,0,0,0.45)"/><circle cx="275.9" cy="196.8" r="0.8" fill="rgba(0,0,0,0.45)"/><circle cx="167.5" cy="246.4" r="0.8" fill="rgba(0,0,0,0.45)"/><circle cx="158.1" cy="257.3" r="0.8" fill="rgba(0,0,0,0.45)"/><circle cx="233.0" cy="135.6" r="0.8" fill="rgba(0,0,0,0.45)"/><circle cx="164.7" cy="228.1" r="0.8" fill="rgba(0,0,0,0.45)"/><circle cx="214.5" cy="246.1" r="0.8" fill="rgba(0,0,0,0.45)"/><circle cx="261.2" cy="180.9" r="0.8" fill="rgba(0,0,0,0.45)"/><circle cx="207.3" cy="116.5" r="0.8" fill="rgba(0,0,0,0.45)"/><circle cx="208.9" cy="263.3" r="0.8" fill="rgba(0,0,0,0.45)"/><circle cx="178.7" cy="215.0" r="0.8" fill="rgba(0,0,0,0.45)"/><circle cx="208.8" cy="151.1" r="0.8" fill="rgba(0,0,0,0.45)"/><circle cx="179.6" cy="253.2" r="0.8" fill="rgba(0,0,0,0.45)"/><circle cx="177.2" cy="137.6" r="0.8" fill="rgba(0,0,0,0.45)"/><circle cx="148.0" cy="157.2" r="0.8" fill="rgba(0,0,0,0.45)"/><circle cx="158.1" cy="208.0" r="0.8" fill="rgba(0,0,0,0.45)"/><circle cx="237.7" cy="214.8" r="0.8" fill="rgba(0,0,0,0.45)"/><circle cx="140.5" cy="220.5" r="0.8" fill="rgba(0,0,0,0.45)"/><circle cx="257.0" cy="189.6" r="0.8" fill="rgba(0,0,0,0.45)"/><circle cx="210.2" cy="135.0" r="0.8" fill="rgba(0,0,0,0.45)"/><circle cx="268.8" cy="204.2" r="0.8" fill="rgba(0,0,0,0.45)"/><circle cx="272.8" cy="168.2" r="0.8" fill="rgba(0,0,0,0.45)"/><circle cx="229.9" cy="168.0" r="0.8" fill="rgba(0,0,0,0.45)"/><circle cx="196.1" cy="262.9" r="0.8" fill="rgba(0,0,0,0.45)"/><circle cx="154.3" cy="197.2" r="0.8" fill="rgba(0,0,0,0.45)"/><circle cx="260.1" cy="151.5" r="0.8" fill="rgba(0,0,0,0.45)"/><circle cx="174.2" cy="164.0" r="0.8" fill="rgba(0,0,0,0.45)"/><circle cx="273.7" cy="212.8" r="0.8" fill="rgba(0,0,0,0.45)"/><circle cx="269.9" cy="169.0" r="0.8" fill="rgba(0,0,0,0.45)"/><circle cx="167.3" cy="181.1" r="0.8" fill="rgba(0,0,0,0.45)"/><circle cx="207.0" cy="263.3" r="0.8" fill="rgba(0,0,0,0.45)"/><circle cx="260.3" cy="144.5" r="0.8" fill="rgba(0,0,0,0.45)"/><circle cx="143.7" cy="185.8" r="0.8" fill="rgba(0,0,0,0.45)"/><circle cx="215.2" cy="124.7" r="0.8" fill="rgba(0,0,0,0.45)"/><circle cx="188.7" cy="134.8" r="0.8" fill="rgba(0,0,0,0.45)"/><circle cx="205.2" cy="274.8" r="0.8" fill="rgba(0,0,0,0.45)"/><circle cx="202.1" cy="273.4" r="0.8" fill="rgba(0,0,0,0.45)"/><circle cx="143.8" cy="153.9" r="0.8" fill="rgba(0,0,0,0.45)"/><circle cx="240.7" cy="173.6" r="0.8" fill="rgba(0,0,0,0.45)"/><circle cx="246.3" cy="133.3" r="0.8" fill="rgba(0,0,0,0.45)"/><circle cx="156.5" cy="164.1" r="0.8" fill="rgba(0,0,0,0.45)"/><circle cx="156.1" cy="158.2" r="0.8" fill="rgba(0,0,0,0.45)"/><circle cx="263.4" cy="197.1" r="0.8" fill="rgba(0,0,0,0.45)"/><circle cx="172.9" cy="248.1" r="0.8" fill="rgba(0,0,0,0.45)"/><circle cx="183.7" cy="226.5" r="0.8" fill="rgba(0,0,0,0.45)"/><circle cx="189.8" cy="167.9" r="0.8" fill="rgba(0,0,0,0.45)"/><circle cx="191.8" cy="227.7" r="0.8" fill="rgba(0,0,0,0.45)"/><circle cx="198.1" cy="157.9" r="0.8" fill="rgba(0,0,0,0.45)"/><circle cx="165.0" cy="263.5" r="0.8" fill="rgba(0,0,0,0.45)"/><circle cx="146.6" cy="146.6" r="0.8" fill="rgba(0,0,0,0.45)"/><circle cx="152.7" cy="150.5" r="0.8" fill="rgba(0,0,0,0.45)"/><circle cx="214.2" cy="227.9" r="0.8" fill="rgba(0,0,0,0.45)"/><circle cx="173.1" cy="234.5" r="0.8" fill="rgba(0,0,0,0.45)"/><circle cx="182.9" cy="255.5" r="0.8" fill="rgba(0,0,0,0.45)"/><circle cx="213.1" cy="128.0" r="0.8" fill="rgba(0,0,0,0.45)"/><circle cx="164.0" cy="157.1" r="0.8" fill="rgba(0,0,0,0.45)"/><circle cx="155.8" cy="188.6" r="0.8" fill="rgba(0,0,0,0.45)"/><circle cx="168.2" cy="190.7" r="0.8" fill="rgba(0,0,0,0.45)"/><circle cx="190.9" cy="270.0" r="0.8" fill="rgba(0,0,0,0.45)"/><circle cx="220.2" cy="129.8" r="0.8" fill="rgba(0,0,0,0.45)"/><circle cx="279.1" cy="183.4" r="0.8" fill="rgba(0,0,0,0.45)"/><circle cx="253.7" cy="243.5" r="0.8" fill="rgba(0,0,0,0.45)"/><circle cx="176.0" cy="160.2" r="0.8" fill="rgba(0,0,0,0.45)"/><circle cx="193.6" cy="239.9" r="0.8" fill="rgba(0,0,0,0.45)"/><circle cx="238.7" cy="146.8" r="0.8" fill="rgba(0,0,0,0.45)"/><circle cx="178.1" cy="127.7" r="0.8" fill="rgba(0,0,0,0.45)"/><circle cx="172.8" cy="220.3" r="0.8" fill="rgba(0,0,0,0.45)"/><circle cx="163.1" cy="142.5" r="0.8" fill="rgba(0,0,0,0.45)"/><circle cx="216.9" cy="256.4" r="0.8" fill="rgba(0,0,0,0.45)"/><circle cx="178.1" cy="126.3" r="0.8" fill="rgba(0,0,0,0.45)"/><circle cx="130.2" cy="186.3" r="0.8" fill="rgba(0,0,0,0.45)"/><circle cx="183.6" cy="265.3" r="0.8" fill="rgba(0,0,0,0.45)"/><circle cx="249.4" cy="237.2" r="0.8" fill="rgba(0,0,0,0.45)"/><circle cx="234.8" cy="258.7" r="0.8" fill="rgba(0,0,0,0.45)"/><circle cx="215.0" cy="232.9" r="0.8" fill="rgba(0,0,0,0.45)"/><circle cx="137.5" cy="181.0" r="0.8" fill="rgba(0,0,0,0.45)"/><circle cx="269.1" cy="198.1" r="0.8" fill="rgba(0,0,0,0.45)"/><circle cx="198.7" cy="249.8" r="0.8" fill="rgba(0,0,0,0.45)"/><circle cx="159.6" cy="192.2" r="0.8" fill="rgba(0,0,0,0.45)"/><circle cx="249.3" cy="198.1" r="0.8" fill="rgba(0,0,0,0.45)"/><circle cx="165.2" cy="142.7" r="0.8" fill="rgba(0,0,0,0.45)"/><circle cx="205.9" cy="235.6" r="0.8" fill="rgba(0,0,0,0.45)"/><circle cx="155.5" cy="224.7" r="0.8" fill="rgba(0,0,0,0.45)"/><circle cx="207.9" cy="142.2" r="0.8" fill="rgba(0,0,0,0.45)"/><circle cx="220.9" cy="139.5" r="0.8" fill="rgba(0,0,0,0.45)"/><circle cx="244.3" cy="146.9" r="0.8" fill="rgba(0,0,0,0.45)"/><circle cx="171.9" cy="243.7" r="0.8" fill="rgba(0,0,0,0.45)"/><circle cx="169.1" cy="197.8" r="0.8" fill="rgba(0,0,0,0.45)"/><circle cx="154.5" cy="164.2" r="0.8" fill="rgba(0,0,0,0.45)"/><circle cx="234.3" cy="250.2" r="0.8" fill="rgba(0,0,0,0.45)"/><circle cx="207.4" cy="259.5" r="0.8" fill="rgba(0,0,0,0.45)"/><circle cx="186.6" cy="118.6" r="0.8" fill="rgba(0,0,0,0.45)"/><circle cx="258.4" cy="171.1" r="0.8" fill="rgba(0,0,0,0.45)"/><circle cx="169.1" cy="206.4" r="0.8" fill="rgba(0,0,0,0.45)"/>
  <rect x="60" y="318" width="280" height="3" fill="#D62E20"/>
  <text x="200" y="354" text-anchor="middle" font-family="Inter,system-ui,sans-serif" font-weight="800" font-size="20" fill="#0D0D0D" letter-spacing="0.02em">KLETT GITTER</text>
  <text x="200" y="378" text-anchor="middle" font-family="Inter,system-ui,sans-serif" font-weight="600" font-size="11" fill="#666" letter-spacing="0.22em">BDE</text>
</svg>