<svg xmlns="http://www.w3.org/2000/svg" viewBox="0 0 400 400" width="400" height="400" role="img" aria-label="ADT Ø82 TROCKEN">
  <defs>
  <radialGradient id="steel" cx="50%" cy="38%" r="62%">
    <stop offset="0%" stop-color="#9C9C9C"/>
    <stop offset="60%" stop-color="#4A4A4A"/>
    <stop offset="100%" stop-color="#1F1F1F"/>
  </radialGradient>
  <linearGradient id="hub" x1="20%" y1="20%" x2="80%" y2="80%">
    <stop offset="0%" stop-color="#6A6A6A"/>
    <stop offset="100%" stop-color="#0D0D0D"/>
  </linearGradient>
  <radialGradient id="bronze" cx="50%" cy="38%" r="62%">
    <stop offset="0%" stop-color="#C9A66B"/>
    <stop offset="60%" stop-color="#9A7A3F"/>
    <stop offset="100%" stop-color="#5C4520"/>
  </radialGradient>
  <linearGradient id="plastic" x1="0%" y1="0%" x2="0%" y2="100%">
    <stop offset="0%" stop-color="#FB7140"/>
    <stop offset="100%" stop-color="#A52213"/>
  </linearGradient>
  <filter id="shadow" x="-30%" y="-30%" width="160%" height="160%">
    <feGaussianBlur in="SourceAlpha" stdDeviation="6"/>
    <feOffset dx="0" dy="8" result="off"/>
    <feComponentTransfer><feFuncA type="linear" slope="0.32"/></feComponentTransfer>
    <feMerge><feMergeNode/><feMergeNode in="SourceGraphic"/></feMerge>
  </filter>
</defs>
  <rect width="400" height="400" fill="#F5F5F5"/>
  <ellipse cx="200" cy="320" rx="76" ry="10" fill="rgba(0,0,0,0.15)"/>
    <rect x="144" y="100" width="113" height="200" fill="url(#steel)" filter="url(#shadow)"/>
    <ellipse cx="200" cy="100" rx="56" ry="8" fill="url(#hub)"/>
    <circle cx="200" cy="116" r="6" fill="#0A0A0A"/>
    <rect x="142" y="86" width="14" height="18" rx="2" fill="#0D0D0D"/><rect x="162" y="86" width="14" height="18" rx="2" fill="#0D0D0D"/><rect x="182" y="86" width="14" height="18" rx="2" fill="#0D0D0D"/><rect x="203" y="86" width="14" height="18" rx="2" fill="#0D0D0D"/><rect x="223" y="86" width="14" height="18" rx="2" fill="#0D0D0D"/><rect x="243" y="86" width="14" height="18" rx="2" fill="#0D0D0D"/>
    <rect x="182" y="304" width="36" height="40" rx="2" fill="url(#hub)"/>
    <line x1="186" y1="314" x2="214" y2="314" stroke="rgba(255,255,255,0.15)"/>
    <line x1="186" y1="324" x2="214" y2="324" stroke="rgba(255,255,255,0.15)"/>
    <line x1="186" y1="334" x2="214" y2="334" stroke="rgba(255,255,255,0.15)"/>
  <rect x="60" y="318" width="280" height="3" fill="#D62E20"/>
  <text x="200" y="354" text-anchor="middle" font-family="Inter,system-ui,sans-serif" font-weight="800" font-size="20" fill="#0D0D0D" letter-spacing="0.02em">Ø82 TROCKEN</text>
  <text x="200" y="378" text-anchor="middle" font-family="Inter,system-ui,sans-serif" font-weight="600" font-size="11" fill="#666" letter-spacing="0.22em">ADT</text>
</svg>