<svg xmlns="http://www.w3.org/2000/svg" viewBox="0 0 400 400" width="400" height="400" role="img" aria-label="Heller DOSE Ø82">
  <defs>
  <radialGradient id="steel" cx="50%" cy="38%" r="62%">
    <stop offset="0%" stop-color="#9C9C9C"/>
    <stop offset="60%" stop-color="#4A4A4A"/>
    <stop offset="100%" stop-color="#1F1F1F"/>
  </radialGradient>
  <linearGradient id="hub" x1="20%" y1="20%" x2="80%" y2="80%">
    <stop offset="0%" stop-color="#6A6A6A"/>
    <stop offset="100%" stop-color="#0D0D0D"/>
  </linearGradient>
  <radialGradient id="bronze" cx="50%" cy="38%" r="62%">
    <stop offset="0%" stop-color="#C9A66B"/>
    <stop offset="60%" stop-color="#9A7A3F"/>
    <stop offset="100%" stop-color="#5C4520"/>
  </radialGradient>
  <linearGradient id="plastic" x1="0%" y1="0%" x2="0%" y2="100%">
    <stop offset="0%" stop-color="#FB7140"/>
    <stop offset="100%" stop-color="#A52213"/>
  </linearGradient>
  <filter id="shadow" x="-30%" y="-30%" width="160%" height="160%">
    <feGaussianBlur in="SourceAlpha" stdDeviation="6"/>
    <feOffset dx="0" dy="8" result="off"/>
    <feComponentTransfer><feFuncA type="linear" slope="0.32"/></feComponentTransfer>
    <feMerge><feMergeNode/><feMergeNode in="SourceGraphic"/></feMerge>
  </filter>
</defs>
  <rect width="400" height="400" fill="#F5F5F5"/>
  <ellipse cx="200" cy="305" rx="100" ry="10" fill="rgba(0,0,0,0.16)"/>
    <ellipse cx="200" cy="217" rx="90" ry="20" fill="url(#hub)" filter="url(#shadow)"/>
    <rect x="110" y="105" width="180" height="112" fill="url(#bronze)"/>
    <ellipse cx="200" cy="105" rx="90" ry="20" fill="url(#bronze)"/>
    <ellipse cx="200" cy="105" rx="90" ry="20" fill="none" stroke="rgba(0,0,0,0.4)" stroke-width="1"/>
    <ellipse cx="200" cy="105" rx="78" ry="16" fill="#2F2F2F"/><rect x="197" y="75" width="6" height="40" fill="#222"/><polygon points="195,75 205,75 200,65" fill="#444"/><rect x="114" y="215" width="8" height="14" rx="1" fill="#0D0D0D"/><rect x="137" y="215" width="8" height="14" rx="1" fill="#0D0D0D"/><rect x="161" y="215" width="8" height="14" rx="1" fill="#0D0D0D"/><rect x="184" y="215" width="8" height="14" rx="1" fill="#0D0D0D"/><rect x="208" y="215" width="8" height="14" rx="1" fill="#0D0D0D"/><rect x="231" y="215" width="8" height="14" rx="1" fill="#0D0D0D"/><rect x="255" y="215" width="8" height="14" rx="1" fill="#0D0D0D"/><rect x="278" y="215" width="8" height="14" rx="1" fill="#0D0D0D"/><rect x="194" y="45" width="12" height="22" fill="#444"/>
  <rect x="60" y="318" width="280" height="3" fill="#D62E20"/>
  <text x="200" y="354" text-anchor="middle" font-family="Inter,system-ui,sans-serif" font-weight="800" font-size="20" fill="#0D0D0D" letter-spacing="0.02em">DOSE Ø82</text>
  <text x="200" y="378" text-anchor="middle" font-family="Inter,system-ui,sans-serif" font-weight="600" font-size="11" fill="#666" letter-spacing="0.22em">HELLER</text>
</svg>