<svg xmlns="http://www.w3.org/2000/svg" viewBox="0 0 400 400" width="400" height="400" role="img" aria-label="Bosch FLIESE Ø30">
  <defs>
  <radialGradient id="steel" cx="50%" cy="38%" r="62%">
    <stop offset="0%" stop-color="#9C9C9C"/>
    <stop offset="60%" stop-color="#4A4A4A"/>
    <stop offset="100%" stop-color="#1F1F1F"/>
  </radialGradient>
  <linearGradient id="hub" x1="20%" y1="20%" x2="80%" y2="80%">
    <stop offset="0%" stop-color="#6A6A6A"/>
    <stop offset="100%" stop-color="#0D0D0D"/>
  </linearGradient>
  <radialGradient id="bronze" cx="50%" cy="38%" r="62%">
    <stop offset="0%" stop-color="#C9A66B"/>
    <stop offset="60%" stop-color="#9A7A3F"/>
    <stop offset="100%" stop-color="#5C4520"/>
  </radialGradient>
  <linearGradient id="plastic" x1="0%" y1="0%" x2="0%" y2="100%">
    <stop offset="0%" stop-color="#FB7140"/>
    <stop offset="100%" stop-color="#A52213"/>
  </linearGradient>
  <filter id="shadow" x="-30%" y="-30%" width="160%" height="160%">
    <feGaussianBlur in="SourceAlpha" stdDeviation="6"/>
    <feOffset dx="0" dy="8" result="off"/>
    <feComponentTransfer><feFuncA type="linear" slope="0.32"/></feComponentTransfer>
    <feMerge><feMergeNode/><feMergeNode in="SourceGraphic"/></feMerge>
  </filter>
</defs>
  <rect width="400" height="400" fill="#F5F5F5"/>
  <ellipse cx="200" cy="305" rx="60" ry="10" fill="rgba(0,0,0,0.16)"/>
    <rect x="175" y="100" width="50" height="180" rx="2" fill="url(#steel)" filter="url(#shadow)"/>
    <ellipse cx="200" cy="100" rx="25" ry="6" fill="url(#hub)"/>
    <ellipse cx="200" cy="100" rx="25" ry="6" fill="none" stroke="rgba(0,0,0,0.4)" stroke-width="1"/>
    <ellipse cx="200" cy="100" rx="18" ry="4" fill="#0F0F0F"/>
    <rect x="196" y="280" width="8" height="30" fill="#444"/><circle cx="185" cy="106" r="0.8" fill="#D62E20"/><circle cx="200" cy="106" r="0.8" fill="#D62E20"/><circle cx="215" cy="106" r="0.8" fill="#D62E20"/><circle cx="185" cy="110" r="0.8" fill="#D62E20"/><circle cx="200" cy="110" r="0.8" fill="#D62E20"/><circle cx="215" cy="110" r="0.8" fill="#D62E20"/><circle cx="185" cy="114" r="0.8" fill="#D62E20"/><circle cx="200" cy="114" r="0.8" fill="#D62E20"/><circle cx="215" cy="114" r="0.8" fill="#D62E20"/><circle cx="185" cy="118" r="0.8" fill="#D62E20"/><circle cx="200" cy="118" r="0.8" fill="#D62E20"/><circle cx="215" cy="118" r="0.8" fill="#D62E20"/>
  <rect x="60" y="318" width="280" height="3" fill="#D62E20"/>
  <text x="200" y="354" text-anchor="middle" font-family="Inter,system-ui,sans-serif" font-weight="800" font-size="20" fill="#0D0D0D" letter-spacing="0.02em">FLIESE Ø30</text>
  <text x="200" y="378" text-anchor="middle" font-family="Inter,system-ui,sans-serif" font-weight="600" font-size="11" fill="#666" letter-spacing="0.22em">BOSCH</text>
</svg>