<svg xmlns="http://www.w3.org/2000/svg" viewBox="0 0 400 400" width="400" height="400" role="img" aria-label="Husqvarna DM 230">
  <defs>
  <radialGradient id="steel" cx="50%" cy="38%" r="62%">
    <stop offset="0%" stop-color="#9C9C9C"/>
    <stop offset="60%" stop-color="#4A4A4A"/>
    <stop offset="100%" stop-color="#1F1F1F"/>
  </radialGradient>
  <linearGradient id="hub" x1="20%" y1="20%" x2="80%" y2="80%">
    <stop offset="0%" stop-color="#6A6A6A"/>
    <stop offset="100%" stop-color="#0D0D0D"/>
  </linearGradient>
  <radialGradient id="bronze" cx="50%" cy="38%" r="62%">
    <stop offset="0%" stop-color="#C9A66B"/>
    <stop offset="60%" stop-color="#9A7A3F"/>
    <stop offset="100%" stop-color="#5C4520"/>
  </radialGradient>
  <linearGradient id="plastic" x1="0%" y1="0%" x2="0%" y2="100%">
    <stop offset="0%" stop-color="#FB7140"/>
    <stop offset="100%" stop-color="#A52213"/>
  </linearGradient>
  <filter id="shadow" x="-30%" y="-30%" width="160%" height="160%">
    <feGaussianBlur in="SourceAlpha" stdDeviation="6"/>
    <feOffset dx="0" dy="8" result="off"/>
    <feComponentTransfer><feFuncA type="linear" slope="0.32"/></feComponentTransfer>
    <feMerge><feMergeNode/><feMergeNode in="SourceGraphic"/></feMerge>
  </filter>
</defs>
  <rect width="400" height="400" fill="#F5F5F5"/>
  <ellipse cx="200" cy="320" rx="140" ry="12" fill="rgba(0,0,0,0.22)"/>
    <rect x="80" y="120" width="160" height="160" rx="12" fill="url(#plastic)" filter="url(#shadow)"/>
    <rect x="80" y="120" width="160" height="160" rx="12" fill="none" stroke="rgba(0,0,0,0.3)" stroke-width="1"/>
    <rect x="100" y="150" width="120" height="38" rx="4" fill="#1A1A1A"/>
    <rect x="108" y="158" width="104" height="22" rx="2" fill="#222"/>
    <circle cx="160" cy="220" r="14" fill="#0A0A0A"/>
    <circle cx="160" cy="220" r="14" fill="none" stroke="rgba(255,255,255,0.18)" stroke-width="1"/>
    <text x="160" y="225" text-anchor="middle" font-family="Inter" font-weight="700" font-size="11" fill="#666">ON</text>
    <rect x="240" y="180" width="46" height="40" rx="4" fill="#1F1F1F"/>
    <rect x="245" y="185" width="36" height="6" fill="#444"/>
    <rect x="100" y="280" width="160" height="14" fill="#1F1F1F"/>
    <rect x="178" y="294" width="44" height="44" fill="url(#hub)"/>
    <rect x="178" y="294" width="44" height="44" fill="none" stroke="rgba(255,255,255,0.12)" stroke-width="1"/>
    <line x1="184" y1="306" x2="216" y2="306" stroke="rgba(255,255,255,0.2)"/>
    <line x1="184" y1="318" x2="216" y2="318" stroke="rgba(255,255,255,0.2)"/>
    <line x1="184" y1="330" x2="216" y2="330" stroke="rgba(255,255,255,0.2)"/>
  <rect x="60" y="318" width="280" height="3" fill="#D62E20"/>
  <text x="200" y="354" text-anchor="middle" font-family="Inter,system-ui,sans-serif" font-weight="800" font-size="20" fill="#0D0D0D" letter-spacing="0.02em">DM 230</text>
  <text x="200" y="378" text-anchor="middle" font-family="Inter,system-ui,sans-serif" font-weight="600" font-size="11" fill="#666" letter-spacing="0.22em">HUSQVARNA</text>
</svg>