<svg xmlns="http://www.w3.org/2000/svg" viewBox="0 0 400 400" width="400" height="400" role="img" aria-label="Bosch GWS 17-125">
  <defs>
  <radialGradient id="steel" cx="50%" cy="38%" r="62%">
    <stop offset="0%" stop-color="#9C9C9C"/>
    <stop offset="60%" stop-color="#4A4A4A"/>
    <stop offset="100%" stop-color="#1F1F1F"/>
  </radialGradient>
  <linearGradient id="hub" x1="20%" y1="20%" x2="80%" y2="80%">
    <stop offset="0%" stop-color="#6A6A6A"/>
    <stop offset="100%" stop-color="#0D0D0D"/>
  </linearGradient>
  <radialGradient id="bronze" cx="50%" cy="38%" r="62%">
    <stop offset="0%" stop-color="#C9A66B"/>
    <stop offset="60%" stop-color="#9A7A3F"/>
    <stop offset="100%" stop-color="#5C4520"/>
  </radialGradient>
  <linearGradient id="plastic" x1="0%" y1="0%" x2="0%" y2="100%">
    <stop offset="0%" stop-color="#FB7140"/>
    <stop offset="100%" stop-color="#A52213"/>
  </linearGradient>
  <filter id="shadow" x="-30%" y="-30%" width="160%" height="160%">
    <feGaussianBlur in="SourceAlpha" stdDeviation="6"/>
    <feOffset dx="0" dy="8" result="off"/>
    <feComponentTransfer><feFuncA type="linear" slope="0.32"/></feComponentTransfer>
    <feMerge><feMergeNode/><feMergeNode in="SourceGraphic"/></feMerge>
  </filter>
</defs>
  <rect width="400" height="400" fill="#F5F5F5"/>
  <ellipse cx="200" cy="320" rx="150" ry="14" fill="rgba(0,0,0,0.22)"/>
    <rect x="70" y="170" width="180" height="60" rx="14" fill="url(#plastic)" filter="url(#shadow)"/>
    <rect x="70" y="170" width="180" height="60" rx="14" fill="none" stroke="rgba(0,0,0,0.3)"/>
    <circle cx="290" cy="200" r="50" fill="url(#steel)"/>
    <circle cx="290" cy="200" r="50" fill="none" stroke="rgba(0,0,0,0.4)" stroke-width="1.5"/>
    <circle cx="290" cy="200" r="14" fill="#0A0A0A"/>
    <rect x="60" y="186" width="14" height="28" rx="2" fill="#1A1A1A"/>
    <rect x="100" y="200" width="48" height="14" rx="2" fill="#1A1A1A"/>
    <circle cx="200" cy="200" r="6" fill="#0A0A0A"/>
    <line x1="290" y1="155" x2="290" y2="245" stroke="rgba(0,0,0,0.2)" stroke-width="1"/>
    <line x1="245" y1="200" x2="335" y2="200" stroke="rgba(0,0,0,0.2)" stroke-width="1"/>
  <rect x="60" y="318" width="280" height="3" fill="#D62E20"/>
  <text x="200" y="354" text-anchor="middle" font-family="Inter,system-ui,sans-serif" font-weight="800" font-size="20" fill="#0D0D0D" letter-spacing="0.02em">GWS 17-125</text>
  <text x="200" y="378" text-anchor="middle" font-family="Inter,system-ui,sans-serif" font-weight="600" font-size="11" fill="#666" letter-spacing="0.22em">BOSCH</text>
</svg>