<svg xmlns="http://www.w3.org/2000/svg" viewBox="0 0 400 400" width="400" height="400" role="img" aria-label="Husqvarna PCD-TOPF Ø125">
  <defs>
  <radialGradient id="steel" cx="50%" cy="38%" r="62%">
    <stop offset="0%" stop-color="#9C9C9C"/>
    <stop offset="60%" stop-color="#4A4A4A"/>
    <stop offset="100%" stop-color="#1F1F1F"/>
  </radialGradient>
  <linearGradient id="hub" x1="20%" y1="20%" x2="80%" y2="80%">
    <stop offset="0%" stop-color="#6A6A6A"/>
    <stop offset="100%" stop-color="#0D0D0D"/>
  </linearGradient>
  <radialGradient id="bronze" cx="50%" cy="38%" r="62%">
    <stop offset="0%" stop-color="#C9A66B"/>
    <stop offset="60%" stop-color="#9A7A3F"/>
    <stop offset="100%" stop-color="#5C4520"/>
  </radialGradient>
  <linearGradient id="plastic" x1="0%" y1="0%" x2="0%" y2="100%">
    <stop offset="0%" stop-color="#FB7140"/>
    <stop offset="100%" stop-color="#A52213"/>
  </linearGradient>
  <filter id="shadow" x="-30%" y="-30%" width="160%" height="160%">
    <feGaussianBlur in="SourceAlpha" stdDeviation="6"/>
    <feOffset dx="0" dy="8" result="off"/>
    <feComponentTransfer><feFuncA type="linear" slope="0.32"/></feComponentTransfer>
    <feMerge><feMergeNode/><feMergeNode in="SourceGraphic"/></feMerge>
  </filter>
</defs>
  <rect width="400" height="400" fill="#F5F5F5"/>
  <ellipse cx="200" cy="310" rx="125" ry="11" fill="rgba(0,0,0,0.18)"/>
    <ellipse cx="200" cy="225" rx="120" ry="32" fill="url(#hub)" filter="url(#shadow)"/>
    <ellipse cx="200" cy="195" rx="120" ry="36" fill="url(#steel)"/>
    <ellipse cx="200" cy="195" rx="120" ry="36" fill="none" stroke="rgba(0,0,0,0.45)" stroke-width="1"/><ellipse cx="200" cy="195" rx="90" ry="22" fill="#1F1F1F"/><rect x="297" y="186" width="18" height="18" fill="#B8862F" transform="rotate(90.0 306 195)"/><rect x="266" y="255" width="18" height="18" fill="#B8862F" transform="rotate(135.0 275 264)"/><rect x="191" y="284" width="18" height="18" fill="#B8862F" transform="rotate(180.0 200 293)"/><rect x="116" y="255" width="18" height="18" fill="#B8862F" transform="rotate(225.0 125 264)"/><rect x="85" y="186" width="18" height="18" fill="#B8862F" transform="rotate(270.0 94 195)"/><rect x="116" y="117" width="18" height="18" fill="#B8862F" transform="rotate(315.0 125 126)"/><rect x="191" y="88" width="18" height="18" fill="#B8862F" transform="rotate(360.0 200 97)"/><rect x="266" y="117" width="18" height="18" fill="#B8862F" transform="rotate(405.0 275 126)"/><rect x="186" y="109" width="28" height="28" rx="2" fill="url(#hub)"/><line x1="190" y1="117" x2="210" y2="117" stroke="rgba(255,255,255,0.15)"/><line x1="190" y1="125" x2="210" y2="125" stroke="rgba(255,255,255,0.15)"/>
  <rect x="60" y="318" width="280" height="3" fill="#D62E20"/>
  <text x="200" y="354" text-anchor="middle" font-family="Inter,system-ui,sans-serif" font-weight="800" font-size="20" fill="#0D0D0D" letter-spacing="0.02em">PCD-TOPF Ø125</text>
  <text x="200" y="378" text-anchor="middle" font-family="Inter,system-ui,sans-serif" font-weight="600" font-size="11" fill="#666" letter-spacing="0.22em">HUSQVARNA</text>
</svg>