<svg xmlns="http://www.w3.org/2000/svg" viewBox="0 0 400 400" width="400" height="400" role="img" aria-label="Bosch TOPF Ø180 2R">
  <defs>
  <radialGradient id="steel" cx="50%" cy="38%" r="62%">
    <stop offset="0%" stop-color="#9C9C9C"/>
    <stop offset="60%" stop-color="#4A4A4A"/>
    <stop offset="100%" stop-color="#1F1F1F"/>
  </radialGradient>
  <linearGradient id="hub" x1="20%" y1="20%" x2="80%" y2="80%">
    <stop offset="0%" stop-color="#6A6A6A"/>
    <stop offset="100%" stop-color="#0D0D0D"/>
  </linearGradient>
  <radialGradient id="bronze" cx="50%" cy="38%" r="62%">
    <stop offset="0%" stop-color="#C9A66B"/>
    <stop offset="60%" stop-color="#9A7A3F"/>
    <stop offset="100%" stop-color="#5C4520"/>
  </radialGradient>
  <linearGradient id="plastic" x1="0%" y1="0%" x2="0%" y2="100%">
    <stop offset="0%" stop-color="#FB7140"/>
    <stop offset="100%" stop-color="#A52213"/>
  </linearGradient>
  <filter id="shadow" x="-30%" y="-30%" width="160%" height="160%">
    <feGaussianBlur in="SourceAlpha" stdDeviation="6"/>
    <feOffset dx="0" dy="8" result="off"/>
    <feComponentTransfer><feFuncA type="linear" slope="0.32"/></feComponentTransfer>
    <feMerge><feMergeNode/><feMergeNode in="SourceGraphic"/></feMerge>
  </filter>
</defs>
  <rect width="400" height="400" fill="#F5F5F5"/>
  <ellipse cx="200" cy="310" rx="125" ry="11" fill="rgba(0,0,0,0.18)"/>
    <ellipse cx="200" cy="225" rx="120" ry="32" fill="url(#hub)" filter="url(#shadow)"/>
    <ellipse cx="200" cy="195" rx="120" ry="36" fill="url(#steel)"/>
    <ellipse cx="200" cy="195" rx="120" ry="36" fill="none" stroke="rgba(0,0,0,0.45)" stroke-width="1"/><ellipse cx="200" cy="195" rx="90" ry="22" fill="#1F1F1F"/><rect x="308" y="190" width="7" height="12" rx="1" fill="#0D0D0D"/><rect x="300" y="230" width="7" height="12" rx="1" fill="#0D0D0D"/><rect x="276" y="264" width="7" height="12" rx="1" fill="#0D0D0D"/><rect x="239" y="286" width="7" height="12" rx="1" fill="#0D0D0D"/><rect x="196" y="294" width="7" height="12" rx="1" fill="#0D0D0D"/><rect x="154" y="286" width="7" height="12" rx="1" fill="#0D0D0D"/><rect x="117" y="264" width="7" height="12" rx="1" fill="#0D0D0D"/><rect x="93" y="230" width="7" height="12" rx="1" fill="#0D0D0D"/><rect x="84" y="190" width="7" height="12" rx="1" fill="#0D0D0D"/><rect x="93" y="150" width="7" height="12" rx="1" fill="#0D0D0D"/><rect x="117" y="116" width="7" height="12" rx="1" fill="#0D0D0D"/><rect x="154" y="94" width="7" height="12" rx="1" fill="#0D0D0D"/><rect x="196" y="86" width="7" height="12" rx="1" fill="#0D0D0D"/><rect x="239" y="94" width="7" height="12" rx="1" fill="#0D0D0D"/><rect x="276" y="116" width="7" height="12" rx="1" fill="#0D0D0D"/><rect x="300" y="150" width="7" height="12" rx="1" fill="#0D0D0D"/><rect x="288" y="190" width="7" height="12" rx="1" fill="#0D0D0D"/><rect x="281" y="223" width="7" height="12" rx="1" fill="#0D0D0D"/><rect x="262" y="251" width="7" height="12" rx="1" fill="#0D0D0D"/><rect x="232" y="269" width="7" height="12" rx="1" fill="#0D0D0D"/><rect x="196" y="276" width="7" height="12" rx="1" fill="#0D0D0D"/><rect x="161" y="269" width="7" height="12" rx="1" fill="#0D0D0D"/><rect x="131" y="251" width="7" height="12" rx="1" fill="#0D0D0D"/><rect x="112" y="223" width="7" height="12" rx="1" fill="#0D0D0D"/><rect x="104" y="190" width="7" height="12" rx="1" fill="#0D0D0D"/><rect x="112" y="157" width="7" height="12" rx="1" fill="#0D0D0D"/><rect x="131" y="129" width="7" height="12" rx="1" fill="#0D0D0D"/><rect x="161" y="111" width="7" height="12" rx="1" fill="#0D0D0D"/><rect x="196" y="104" width="7" height="12" rx="1" fill="#0D0D0D"/><rect x="232" y="111" width="7" height="12" rx="1" fill="#0D0D0D"/><rect x="262" y="129" width="7" height="12" rx="1" fill="#0D0D0D"/><rect x="281" y="157" width="7" height="12" rx="1" fill="#0D0D0D"/><rect x="186" y="109" width="28" height="28" rx="2" fill="url(#hub)"/><line x1="190" y1="117" x2="210" y2="117" stroke="rgba(255,255,255,0.15)"/><line x1="190" y1="125" x2="210" y2="125" stroke="rgba(255,255,255,0.15)"/>
  <rect x="60" y="318" width="280" height="3" fill="#D62E20"/>
  <text x="200" y="354" text-anchor="middle" font-family="Inter,system-ui,sans-serif" font-weight="800" font-size="20" fill="#0D0D0D" letter-spacing="0.02em">TOPF Ø180 2R</text>
  <text x="200" y="378" text-anchor="middle" font-family="Inter,system-ui,sans-serif" font-weight="600" font-size="11" fill="#666" letter-spacing="0.22em">BOSCH</text>
</svg>