<svg xmlns="http://www.w3.org/2000/svg" viewBox="0 0 400 400" width="400" height="400" role="img" aria-label="VARI-GRIND EZ SL">
  <defs>
  <radialGradient id="plate" cx="50%" cy="42%" r="62%">
    <stop offset="0%" stop-color="#7A7A7A"/>
    <stop offset="55%" stop-color="#3F3F3F"/>
    <stop offset="100%" stop-color="#1A1A1A"/>
  </radialGradient>
  <linearGradient id="hub" x1="20%" y1="20%" x2="80%" y2="80%">
    <stop offset="0%" stop-color="#5A5A5A"/>
    <stop offset="100%" stop-color="#0D0D0D"/>
  </linearGradient>
  <radialGradient id="adpPlate" cx="40%" cy="35%" r="75%">
    <stop offset="0%" stop-color="#A5A5A5"/>
    <stop offset="70%" stop-color="#5C5C5C"/>
    <stop offset="100%" stop-color="#2A2A2A"/>
  </radialGradient>
  <filter id="dropshadow" x="-20%" y="-20%" width="140%" height="140%">
    <feGaussianBlur in="SourceAlpha" stdDeviation="5"/>
    <feOffset dx="0" dy="6" result="off"/>
    <feComponentTransfer><feFuncA type="linear" slope="0.35"/></feComponentTransfer>
    <feMerge><feMergeNode/><feMergeNode in="SourceGraphic"/></feMerge>
  </filter>
</defs>
  <rect width="400" height="400" fill="#F5F5F5"/>
  <ellipse cx="200" cy="350" rx="120" ry="14" fill="rgba(0,0,0,0.18)"/>
  <circle cx="200" cy="200" r="155" fill="url(#plate)" filter="url(#dropshadow)"/>
  <circle cx="200" cy="200" r="155" fill="none" stroke="rgba(255,255,255,0.06)" stroke-width="2"/>
  <g filter="url(#dropshadow)">
    <rect x="190" y="55" width="20" height="48" rx="3" fill="#2D8540"/>
    <rect x="190" y="55" width="20" height="48" rx="3" fill="#2D8540" transform="rotate(120 200 200)"/>
    <rect x="190" y="55" width="20" height="48" rx="3" fill="#2D8540" transform="rotate(240 200 200)"/>
  </g>
  <circle cx="200" cy="200" r="48" fill="url(#hub)"/>
  <circle cx="200" cy="200" r="48" fill="none" stroke="rgba(255,255,255,0.1)" stroke-width="1.5"/>
  <circle cx="200" cy="200" r="22" fill="#0A0A0A"/>
  <circle cx="200" cy="200" r="22" fill="none" stroke="rgba(255,255,255,0.15)" stroke-width="1"/>
  <rect x="60" y="318" width="280" height="3" fill="#4FA563"/>
  <text x="200" y="354" text-anchor="middle" font-family="Inter,system-ui,sans-serif" font-weight="800" font-size="24" fill="#0D0D0D" letter-spacing="0.04em">EZ SL</text>
  <text x="200" y="378" text-anchor="middle" font-family="Inter,system-ui,sans-serif" font-weight="600" font-size="11" fill="#666" letter-spacing="0.22em">VARI-GRIND</text>
</svg>